<svg width="202" height="56" viewBox="0 0 202 56" fill="none"
    xmlns="http://www.w3.org/2000/svg">
    <path d="M0 46.3985L11.5635 55.9999L20.3834 27.9999L8.81982 18.3984L0 46.3985Z" fill="url(#paint0_linear_4880_24716)"/>
    <path d="M20.3828 28L31.9463 37.6015L40.7661 9.60144L29.2026 0L20.3828 28Z" fill="url(#paint1_linear_4880_24716)"/>
    <path d="M17.3633 37.6008L31.9486 37.6054L20.3851 28.0039L17.3633 37.6008Z" fill="#2F80FF"/>
    <path d="M50.1445 18.1562H53.9496V26.0663H63.9466V18.1562H67.7517V38.5266H63.9466V29.6605H53.9496V38.5266H50.1445V18.1562Z" fill="#2F80FF"/>
    <path d="M71.4805 18.9644C71.4805 17.8843 72.3842 17.0156 73.4409 17.0156C74.5301 17.0156 75.4338 17.8843 75.4338 18.9644C75.4338 19.9848 74.5301 20.9408 73.4409 20.9408C72.3842 20.9408 71.4805 19.9848 71.4805 18.9644ZM71.7215 22.6184H75.1372V38.5258H71.7215V22.6184Z" fill="#2F80FF"/>
    <path d="M79.5156 22.6176H82.9592V24.5066C83.7749 23.0404 86.0413 22.4981 88.0944 22.6176V26.2118C85.5546 25.8211 83.14 27.3195 83.14 29.806V38.525H79.5156V22.6176Z" fill="#2F80FF"/>
    <path d="M89.3711 30.4691C89.3711 26.0981 92.2724 22.1132 97.1017 22.1408C102.357 22.1408 106.074 26.1532 104.652 32.0548H93.3245C93.5052 33.8794 95.4379 35.6168 97.8526 35.6168C99.0298 35.649 101.236 35.0469 101.838 34.1506L104.619 36.2787C102.988 38.0758 100.392 38.8249 97.4911 38.8249C92.6015 38.8249 89.3711 34.5689 89.3711 30.4691ZM101.12 28.9385C101.333 27.5597 100.304 25.3122 97.2223 25.3122C94.6546 25.3122 93.2967 27.2609 93.2967 28.9385H101.12Z" fill="#2F80FF"/>
    <path d="M109.344 18.4844H117.983C122.149 18.4844 124.597 20.6124 124.597 23.485C124.597 25.8199 123.419 27.4378 121.82 27.948C124.597 28.5179 125.686 30.7057 125.686 33.0405C125.686 36.3038 123.359 38.5238 118.497 38.5238H109.344V18.4844ZM118.646 26.9C120.486 26.9 122.029 26.0313 122.029 23.8757C122.029 21.5684 119.702 20.6997 117.556 20.6997H111.846V26.9H118.646ZM118.103 36.2763C121.125 36.2763 123.086 35.0491 123.086 32.682C123.086 30.6781 121.876 29.1475 118.437 29.1475H111.851V36.2763H118.103Z" fill="#2F80FF"/>
    <path d="M128.562 30.7077C128.562 26.2172 132.247 22.5586 136.808 22.5586C141.336 22.5586 145.02 26.2126 145.02 30.7077C145.02 35.2027 141.336 38.8843 136.808 38.8843C132.247 38.8843 128.562 35.1981 128.562 30.7077ZM142.61 30.7077C142.61 27.5317 140.015 24.9578 136.812 24.9578C133.582 24.9578 130.982 27.5363 130.982 30.7077C130.982 33.8836 133.577 36.4897 136.812 36.4897C140.015 36.4851 142.61 33.879 142.61 30.7077Z" fill="#2F80FF"/>
    <path d="M147.754 31.0643V22.8555H150.173V31.0643C150.173 34.3597 152.166 36.2764 155.276 36.2764C158.386 36.2764 160.351 34.4195 160.351 31.0643V22.8555H162.766V31.0643C162.766 35.7983 159.684 38.671 155.276 38.671C150.864 38.671 147.754 35.7983 147.754 31.0643Z" fill="#2F80FF"/>
    <path d="M166.524 30.3176C166.524 25.5836 169.634 22.7109 174.046 22.7109C178.454 22.7109 181.536 25.5881 181.536 30.3176V38.5265H179.117V30.3176C179.117 26.9302 177.156 25.1056 174.042 25.1056C170.932 25.1056 168.939 26.99 168.939 30.3176V38.5265H166.52V30.3176H166.524Z" fill="#2F80FF"/>
    <path d="M193.752 22.6512C196.292 22.6512 198.493 24.0576 199.582 26.0983V17.5586H202.001V30.8002C202.001 35.2907 198.317 38.9768 193.756 38.9768C189.228 38.9768 185.539 35.2907 185.539 30.8002C185.534 26.3051 189.219 22.6512 193.752 22.6512ZM193.752 36.5776C196.982 36.5776 199.582 33.9716 199.582 30.7956C199.582 27.6197 196.987 25.0458 193.752 25.0458C190.549 25.0458 187.954 27.6197 187.954 30.7956C187.954 33.9716 190.549 36.5776 193.752 36.5776Z" fill="#2F80FF"/>
    <defs>
        <linearGradient id="paint0_linear_4880_24716" x1="1.42668" y1="47.5862" x2="18.7884" y2="26.6785" gradientUnits="userSpaceOnUse">
            <stop stop-color="#0080FF"/>
            <stop offset="1" stop-color="#00FFF8"/>
        </linearGradient>
        <linearGradient id="paint1_linear_4880_24716" x1="35.5204" y1="4.46204" x2="25.8502" y2="32.9939" gradientUnits="userSpaceOnUse">
            <stop stop-color="#00C3FF"/>
            <stop offset="1" stop-color="#A100FF"/>
        </linearGradient>
    </defs>
</svg>
